<svg xmlns="http://www.w3.org/2000/svg" viewBox="0 0 100 100" fill="none" role="img" aria-label="Lumina Waves">
  <defs>
    <linearGradient id="icon-grad" x1="0" y1="0" x2="1" y2="1"><stop offset="0%" stop-color="#8A6A2F"/><stop offset="35%" stop-color="#E6C878"/><stop offset="50%" stop-color="#FBF3D9"/><stop offset="70%" stop-color="#D4AF37"/><stop offset="100%" stop-color="#8A6A2F"/></linearGradient>
    <linearGradient id="icon-glow" x1="0" y1="0.5" x2="1" y2="0.5"><stop offset="0%" stop-color="#D4AF37" stop-opacity="0"/><stop offset="50%" stop-color="#FBF3D9" stop-opacity="0.7"/><stop offset="100%" stop-color="#D4AF37" stop-opacity="0"/></linearGradient>
  </defs>
  <circle cx="50" cy="50" r="46" stroke="url(#icon-grad)" stroke-width="2"/>
  <rect x="10" y="49.5" width="80" height="1" fill="url(#icon-glow)"/>
  <g fill="url(#icon-grad)"><rect x="16.15" y="48.5" width="1.7" height="3" rx="0.85"/><rect x="18.21" y="48" width="1.7" height="4" rx="0.85"/><rect x="20.28" y="47" width="1.7" height="6" rx="0.85"/><rect x="22.34" y="46" width="1.7" height="8" rx="0.85"/><rect x="24.40" y="44.5" width="1.7" height="11" rx="0.85"/><rect x="26.46" y="42.5" width="1.7" height="15" rx="0.85"/><rect x="28.53" y="40.5" width="1.7" height="19" rx="0.85"/><rect x="30.59" y="38.5" width="1.7" height="23" rx="0.85"/><rect x="32.65" y="36.5" width="1.7" height="27" rx="0.85"/><rect x="34.71" y="34.5" width="1.7" height="31" rx="0.85"/><rect x="36.78" y="33" width="1.7" height="34" rx="0.85"/><rect x="38.84" y="31" width="1.7" height="38" rx="0.85"/><rect x="40.90" y="29.5" width="1.7" height="41" rx="0.85"/><rect x="42.96" y="28.5" width="1.7" height="43" rx="0.85"/><rect x="45.03" y="27.5" width="1.7" height="45" rx="0.85"/><rect x="47.09" y="27" width="1.7" height="46" rx="0.85"/><rect x="49.15" y="27" width="1.7" height="46" rx="0.85"/><rect x="51.21" y="27" width="1.7" height="46" rx="0.85"/><rect x="53.28" y="27.5" width="1.7" height="45" rx="0.85"/><rect x="55.34" y="28.5" width="1.7" height="43" rx="0.85"/><rect x="57.40" y="29.5" width="1.7" height="41" rx="0.85"/><rect x="59.46" y="31" width="1.7" height="38" rx="0.85"/><rect x="61.53" y="33" width="1.7" height="34" rx="0.85"/><rect x="63.59" y="34.5" width="1.7" height="31" rx="0.85"/><rect x="65.65" y="36.5" width="1.7" height="27" rx="0.85"/><rect x="67.71" y="38.5" width="1.7" height="23" rx="0.85"/><rect x="69.78" y="40.5" width="1.7" height="19" rx="0.85"/><rect x="71.84" y="42.5" width="1.7" height="15" rx="0.85"/><rect x="73.90" y="44.5" width="1.7" height="11" rx="0.85"/><rect x="75.96" y="46" width="1.7" height="8" rx="0.85"/><rect x="78.03" y="47" width="1.7" height="6" rx="0.85"/><rect x="80.09" y="48" width="1.7" height="4" rx="0.85"/><rect x="82.15" y="48.5" width="1.7" height="3" rx="0.85"/></g>
</svg>